<svg xmlns="http://www.w3.org/2000/svg" width="174.731" height="43.059" viewBox="0 0 174.731 43.059">
  <g id="logo-2" transform="translate(0.007 0.096)">
    <path id="Path_1" data-name="Path 1" d="M1514.18,363.809v2.923a8.586,8.586,0,0,0,2.927-.6,4.836,4.836,0,0,0,2.282-1.9,5.048,5.048,0,0,0,.808-2.744,5.136,5.136,0,0,0-.673-2.715,4.731,4.731,0,0,0-1.864-1.733,16.157,16.157,0,0,0-3.669-1.227,8.8,8.8,0,0,1-3.127-1.147,1.3,1.3,0,0,1-.506-1.037,1.261,1.261,0,0,1,.539-1.063,3.427,3.427,0,0,1,1.784-.6V349.1a7.8,7.8,0,0,0-2.748.582,4.529,4.529,0,0,0-1.278,7.615,9.149,9.149,0,0,0,3.837,1.693q2.124.535,2.719.746a2.761,2.761,0,0,1,1.223.735,1.576,1.576,0,0,1,.349,1.03,2.1,2.1,0,0,1-.833,1.642,3.214,3.214,0,0,1-1.758.666Zm-1.5,2.919a6.788,6.788,0,0,1-4.168-1.47,6.5,6.5,0,0,1-2.049-4.342l3.327-.335a4.091,4.091,0,0,0,1.212,2.471,3.248,3.248,0,0,0,1.678.732v2.945Zm1.5-14.7a2.631,2.631,0,0,1,1.165.495,2.954,2.954,0,0,1,.932,1.9l3.422-.12a5.062,5.062,0,0,0-1.685-3.793,6.333,6.333,0,0,0-3.833-1.387Zm-35.292,14.414-6.046-17.045h9.212v2.832h-4.55l3.33,9.788,4.12-12.619h3.636l-6.009,17.045h-3.694Zm-14.436-2.693v2.981a7.6,7.6,0,0,0,5.223-2.315,10.551,10.551,0,0,0-.015-12.987,7.678,7.678,0,0,0-5.208-2.315v2.974a4.139,4.139,0,0,1,2.653,1.4,6.421,6.421,0,0,1,1.278,4.375,6.545,6.545,0,0,1-1.31,4.455,4.236,4.236,0,0,1-2.624,1.434Zm-1.5,2.977a7.659,7.659,0,0,1-5.223-2.3,8.882,8.882,0,0,1-2.228-6.4,10.916,10.916,0,0,1,.775-4.379,8.041,8.041,0,0,1,1.573-2.34,6.674,6.674,0,0,1,2.184-1.54,8.762,8.762,0,0,1,2.919-.652V352.1a4.2,4.2,0,0,0-2.639,1.409,8.04,8.04,0,0,0,.033,8.8,4.262,4.262,0,0,0,2.6,1.438v2.985ZM1439.166,349.4h3.312l6.956,11.422V349.395h3.163V366.44h-3.418Zm3.163,10.585v6.461h-3.163v-6.461Zm-19.7,0-.007,6.461h-3.163v-6.461Zm-3.17-10.585h4.306l3.847,6.1,3.811-6.1h4.321V366.44h-3.163l-.011-12.6-4.957,7.487-8.157-11.931Zm-15.429,14.414v2.923a8.585,8.585,0,0,0,2.926-.6,4.836,4.836,0,0,0,2.282-1.9,5.046,5.046,0,0,0,.808-2.744,5.135,5.135,0,0,0-.673-2.715,4.731,4.731,0,0,0-1.864-1.733,16.146,16.146,0,0,0-3.669-1.227,8.8,8.8,0,0,1-3.127-1.147,1.305,1.305,0,0,1-.506-1.037,1.261,1.261,0,0,1,.539-1.063,3.427,3.427,0,0,1,1.784-.6V349.1a7.8,7.8,0,0,0-2.748.582,4.528,4.528,0,0,0-1.277,7.615,9.145,9.145,0,0,0,3.836,1.693q2.124.535,2.719.746a2.759,2.759,0,0,1,1.223.735,1.576,1.576,0,0,1,.35,1.03,2.1,2.1,0,0,1-.834,1.642,3.214,3.214,0,0,1-1.758.666Zm-1.5,2.919a6.788,6.788,0,0,1-4.167-1.47,6.512,6.512,0,0,1-2.049-4.342l3.327-.335a4.088,4.088,0,0,0,1.212,2.471,3.246,3.246,0,0,0,1.678.732v2.945Zm1.5-14.7a2.63,2.63,0,0,1,1.165.495,2.953,2.953,0,0,1,.932,1.9l3.422-.12a5.063,5.063,0,0,0-1.685-3.793,6.334,6.334,0,0,0-3.836-1.387v2.908Zm93.755,11.738v2.977a7.929,7.929,0,0,0,2.69-.51,5.079,5.079,0,0,0,1.98-1.39,4.841,4.841,0,0,0,1.019-2.144,23.143,23.143,0,0,0,.277-4.342v-8.965h-3.421v9.434a19.6,19.6,0,0,1-.149,2.9,2.363,2.363,0,0,1-.877,1.471,2.859,2.859,0,0,1-1.514.564Zm-1.5,2.963v-2.992a3.009,3.009,0,0,1-1.383-.568,2.776,2.776,0,0,1-1.03-1.682,19.416,19.416,0,0,1-.127-2.85V349.4h-3.421v9.1a20.694,20.694,0,0,0,.335,4.328,4.7,4.7,0,0,0,.954,1.893,5.2,5.2,0,0,0,1.973,1.467,7.7,7.7,0,0,0,2.7.539ZM1412.82,354h3.421v-4.608h-3.421Zm0,1.5h3.421v10.94h-3.421Z" transform="translate(-1345.476 -336.49)" fill="#fff" fill-rule="evenodd"/>
    <path id="Path_3" data-name="Path 3" d="M634.6,4.106a4.106,4.106,0,1,1,4.106,4.106A4.106,4.106,0,0,1,634.6,4.106Z" transform="translate(-611.502 -0.096)" fill="#fff" fill-rule="evenodd"/>
    <path id="Path_4" data-name="Path 4" d="M961.406,322.7a4.106,4.106,0,1,1-4.106,4.106A4.106,4.106,0,0,1,961.406,322.7Z" transform="translate(-922.456 -311.051)" fill="#fff" fill-rule="evenodd"/>
    <path id="Path_5" data-name="Path 5" d="M323.206,322.7a4.106,4.106,0,1,1-4.106,4.106A4.106,4.106,0,0,1,323.206,322.7Z" transform="translate(-307.485 -311.051)" fill="#fff" fill-rule="evenodd"/>
    <path id="Path_6" data-name="Path 6" d="M4.106,322.7A4.106,4.106,0,1,1,0,326.806,4.106,4.106,0,0,1,4.106,322.7Z" transform="translate(0 -311.051)" fill="#fff" fill-rule="evenodd"/>
    <path id="Path_7" data-name="Path 7" d="M323.206,634.6a4.106,4.106,0,1,1-4.106,4.106,4.106,4.106,0,0,1,4.106-4.106Z" transform="translate(-307.485 -611.598)" fill="#fff" fill-rule="evenodd"/>
    <path id="Path_8" data-name="Path 8" d="M7.374,641.188a4.109,4.109,0,1,0-.786.786l6,5.995a4.106,4.106,0,1,0,6.508-.036l5.8-5.929a4.13,4.13,0,1,0-.793-.779l-5.8,5.929a4.1,4.1,0,0,0-4.928.029l-5.995-5.995Z" transform="translate(0 -611.598)" fill="#fff" fill-rule="evenodd"/>
    <path id="Path_9" data-name="Path 9" d="M326.806,8.111a4.088,4.088,0,0,0,2.482-.837l5.849,5.849a4.1,4.1,0,0,0,5.78,5.78l5.718,5.718a4.1,4.1,0,0,0,0,4.965l-5.995,5.995a4.109,4.109,0,1,0,.786.786l5.995-6a4.106,4.106,0,1,0,0-6.537l-5.751-5.751a4.106,4.106,0,0,0-5.711-5.711l-5.886-5.886A4.1,4.1,0,1,0,326.8,8.11Z" transform="translate(-310.954)" fill="#ec691f" fill-rule="evenodd"/>
  </g>
</svg>
