<svg width="632" height="364" viewBox="0 0 632 364" fill="none" xmlns="http://www.w3.org/2000/svg">
<path d="M267.5 172C308.093 172 341 139.093 341 98.5C341 57.9071 308.093 25 267.5 25C226.907 25 194 57.9071 194 98.5C194 139.093 226.907 172 267.5 172Z" stroke="#F27024" stroke-miterlimit="10"/>
<path d="M132.523 216.093C140.153 216.093 146.338 209.907 146.338 202.277C146.338 194.647 140.153 188.462 132.523 188.462C124.893 188.462 118.708 194.647 118.708 202.277C118.708 209.907 124.893 216.093 132.523 216.093Z" stroke="#F27024" stroke-width="0.75" stroke-miterlimit="10"/>
<path d="M69.3392 158.745C93.8271 158.745 113.678 139.103 113.678 114.873C113.678 90.6424 93.8271 71 69.3392 71C44.8514 71 25 90.6424 25 114.873C25 139.103 44.8514 158.745 69.3392 158.745Z" stroke="#F27024" stroke-width="0.75" stroke-miterlimit="10"/>
<path d="M251.473 310.807C252.373 310.807 253.102 310.078 253.102 309.179C253.102 308.279 252.373 307.55 251.473 307.55C250.574 307.55 249.845 308.279 249.845 309.179C249.845 310.078 250.574 310.807 251.473 310.807Z" stroke="#44AE79" stroke-miterlimit="10" stroke-linecap="round" stroke-linejoin="round"/>
<path d="M246.754 271.463C248.489 271.463 249.895 270.057 249.895 268.322C249.895 266.588 248.489 265.182 246.754 265.182C245.02 265.182 243.614 266.588 243.614 268.322C243.614 270.057 245.02 271.463 246.754 271.463Z" stroke="#44AE79" stroke-miterlimit="10" stroke-linecap="round" stroke-linejoin="round"/>
<path d="M478.455 17.5769L195.776 300.13" stroke="#44AE79" stroke-miterlimit="10" stroke-linecap="round" stroke-linejoin="round"/>
<path d="M478.205 36.0232L248.872 265.356" stroke="#44AE79" stroke-miterlimit="10" stroke-linecap="round" stroke-linejoin="round"/>
<path d="M478.205 45.1218L272.678 250.774" stroke="#44AE79" stroke-miterlimit="10" stroke-linecap="round" stroke-linejoin="round"/>
<path d="M478.206 63.4434L281.777 259.872" stroke="#44AE79" stroke-miterlimit="10" stroke-linecap="round" stroke-linejoin="round"/>
<path d="M478.205 54.345L301.843 230.707" stroke="#44AE79" stroke-miterlimit="10" stroke-linecap="round" stroke-linejoin="round"/>
<path d="M478.205 72.542L267.194 283.678" stroke="#44AE79" stroke-miterlimit="10" stroke-linecap="round" stroke-linejoin="round"/>
<path d="M478.206 81.7654L252.487 307.484" stroke="#44AE79" stroke-miterlimit="10" stroke-linecap="round" stroke-linejoin="round"/>
<path d="M478.454 8.47827L173.341 313.467" stroke="#44AE79" stroke-miterlimit="10" stroke-linecap="round" stroke-linejoin="round"/>
<path d="M478.205 26.7998L225.066 280.064" stroke="#44AE79" stroke-miterlimit="10" stroke-linecap="round" stroke-linejoin="round"/>
<path d="M478.454 99.8376L219.083 359.209" stroke="#44AE79" stroke-miterlimit="10" stroke-linecap="round" stroke-linejoin="round"/>
<path d="M478.206 90.8638L232.42 336.774" stroke="#44AE79" stroke-miterlimit="10" stroke-linecap="round" stroke-linejoin="round"/>
<path d="M192.91 306.487C194.768 306.487 196.275 304.98 196.275 303.122C196.275 301.263 194.768 299.756 192.91 299.756C191.051 299.756 189.544 301.263 189.544 303.122C189.544 304.98 191.051 306.487 192.91 306.487Z" stroke="#44AE79" stroke-miterlimit="10" stroke-linecap="round" stroke-linejoin="round"/>
<path d="M171.597 316.956C172.561 316.956 173.342 316.175 173.342 315.211C173.342 314.248 172.561 313.467 171.597 313.467C170.633 313.467 169.852 314.248 169.852 315.211C169.852 316.175 170.633 316.956 171.597 316.956Z" stroke="#44AE79" stroke-miterlimit="10" stroke-linecap="round" stroke-linejoin="round"/>
<path d="M223.696 283.304C224.659 283.304 225.441 282.523 225.441 281.559C225.441 280.596 224.659 279.814 223.696 279.814C222.732 279.814 221.951 280.596 221.951 281.559C221.951 282.523 222.732 283.304 223.696 283.304Z" stroke="#44AE79" stroke-miterlimit="10" stroke-linecap="round" stroke-linejoin="round"/>
<path d="M264.826 289.412C266.685 289.412 268.191 287.905 268.191 286.046C268.191 284.188 266.685 282.681 264.826 282.681C262.968 282.681 261.461 284.188 261.461 286.046C261.461 287.905 262.968 289.412 264.826 289.412Z" stroke="#44AE79" stroke-miterlimit="10" stroke-linecap="round" stroke-linejoin="round"/>
<path d="M229.43 343.006C231.288 343.006 232.795 341.499 232.795 339.64C232.795 337.782 231.288 336.275 229.43 336.275C227.571 336.275 226.064 337.782 226.064 339.64C226.064 341.499 227.571 343.006 229.43 343.006Z" stroke="#44AE79" stroke-miterlimit="10" stroke-linecap="round" stroke-linejoin="round"/>
<path d="M217.339 362.574C218.303 362.574 219.084 361.793 219.084 360.829C219.084 359.865 218.303 359.084 217.339 359.084C216.375 359.084 215.594 359.865 215.594 360.829C215.594 361.793 216.375 362.574 217.339 362.574Z" stroke="#44AE79" stroke-miterlimit="10" stroke-linecap="round" stroke-linejoin="round"/>
<path d="M298.852 236.939C300.711 236.939 302.217 235.432 302.217 233.574C302.217 231.715 300.711 230.208 298.852 230.208C296.993 230.208 295.487 231.715 295.487 233.574C295.487 235.432 296.993 236.939 298.852 236.939Z" stroke="#44AE79" stroke-miterlimit="10" stroke-linecap="round" stroke-linejoin="round"/>
<path d="M270.809 254.139C271.773 254.139 272.554 253.358 272.554 252.394C272.554 251.43 271.773 250.649 270.809 250.649C269.846 250.649 269.064 251.43 269.064 252.394C269.064 253.358 269.846 254.139 270.809 254.139Z" stroke="#44AE79" stroke-miterlimit="10" stroke-linecap="round" stroke-linejoin="round"/>
<path d="M280.032 263.362C280.995 263.362 281.776 262.581 281.776 261.617C281.776 260.654 280.995 259.872 280.032 259.872C279.068 259.872 278.287 260.654 278.287 261.617C278.287 262.581 279.068 263.362 280.032 263.362Z" stroke="#44AE79" stroke-miterlimit="10" stroke-linecap="round" stroke-linejoin="round"/>
<path d="M172.72 229.959C173.683 229.959 174.464 229.178 174.464 228.214C174.464 227.251 173.683 226.469 172.72 226.469C171.756 226.469 170.975 227.251 170.975 228.214C170.975 229.178 171.756 229.959 172.72 229.959Z" stroke="#44AE79" stroke-miterlimit="10" stroke-linecap="round" stroke-linejoin="round"/>
<path d="M213.849 236.191C215.707 236.191 217.214 234.685 217.214 232.826C217.214 230.968 215.707 229.461 213.849 229.461C211.99 229.461 210.483 230.968 210.483 232.826C210.483 234.685 211.99 236.191 213.849 236.191Z" stroke="#44AE79" stroke-miterlimit="10" stroke-linecap="round" stroke-linejoin="round"/>
<path d="M463.997 1L181.443 283.554" stroke="#44AE79" stroke-miterlimit="10" stroke-linecap="round" stroke-linejoin="round"/>
<path d="M445.551 1.12451L216.218 230.458" stroke="#44AE79" stroke-miterlimit="10" stroke-linecap="round" stroke-linejoin="round"/>
<path d="M436.452 1.12451L230.8 206.777" stroke="#44AE79" stroke-miterlimit="10" stroke-linecap="round" stroke-linejoin="round"/>
<path d="M418.131 1.12451L221.702 197.553" stroke="#44AE79" stroke-miterlimit="10" stroke-linecap="round" stroke-linejoin="round"/>
<path d="M427.353 1.12451L250.991 177.487" stroke="#44AE79" stroke-miterlimit="10" stroke-linecap="round" stroke-linejoin="round"/>
<path d="M409.031 1.12451L197.895 212.261" stroke="#44AE79" stroke-miterlimit="10" stroke-linecap="round" stroke-linejoin="round"/>
<path d="M399.808 1.12451L174.089 226.843" stroke="#44AE79" stroke-miterlimit="10" stroke-linecap="round" stroke-linejoin="round"/>
<path d="M473.221 1L168.108 305.988" stroke="#44AE79" stroke-miterlimit="10" stroke-linecap="round" stroke-linejoin="round"/>
<path d="M454.773 1.12451L201.509 254.264" stroke="#44AE79" stroke-miterlimit="10" stroke-linecap="round" stroke-linejoin="round"/>
<path d="M381.736 1L122.49 260.246" stroke="#44AE79" stroke-miterlimit="10" stroke-linecap="round" stroke-linejoin="round"/>
<path d="M390.71 1.12451L144.8 246.91" stroke="#44AE79" stroke-miterlimit="10" stroke-linecap="round" stroke-linejoin="round"/>
<path d="M178.452 289.785C180.31 289.785 181.817 288.279 181.817 286.42C181.817 284.562 180.31 283.055 178.452 283.055C176.593 283.055 175.086 284.562 175.086 286.42C175.086 288.279 176.593 289.785 178.452 289.785Z" stroke="#44AE79" stroke-miterlimit="10" stroke-linecap="round" stroke-linejoin="round"/>
<path d="M166.487 309.478C167.451 309.478 168.232 308.697 168.232 307.733C168.232 306.77 167.451 305.988 166.487 305.988C165.523 305.988 164.742 306.77 164.742 307.733C164.742 308.697 165.523 309.478 166.487 309.478Z" stroke="#44AE79" stroke-miterlimit="10" stroke-linecap="round" stroke-linejoin="round"/>
<path d="M200.14 257.38C201.104 257.38 201.885 256.598 201.885 255.635C201.885 254.671 201.104 253.89 200.14 253.89C199.176 253.89 198.395 254.671 198.395 255.635C198.395 256.598 199.176 257.38 200.14 257.38Z" stroke="#44AE79" stroke-miterlimit="10" stroke-linecap="round" stroke-linejoin="round"/>
<path d="M195.527 217.87C197.386 217.87 198.893 216.363 198.893 214.504C198.893 212.646 197.386 211.139 195.527 211.139C193.669 211.139 192.162 212.646 192.162 214.504C192.162 216.363 193.669 217.87 195.527 217.87Z" stroke="#44AE79" stroke-miterlimit="10" stroke-linecap="round" stroke-linejoin="round"/>
<path d="M141.934 253.267C143.792 253.267 145.299 251.76 145.299 249.902C145.299 248.043 143.792 246.536 141.934 246.536C140.075 246.536 138.568 248.043 138.568 249.902C138.568 251.76 140.075 253.267 141.934 253.267Z" stroke="#44AE79" stroke-miterlimit="10" stroke-linecap="round" stroke-linejoin="round"/>
<path d="M120.745 263.736C121.709 263.736 122.49 262.955 122.49 261.991C122.49 261.028 121.709 260.246 120.745 260.246C119.781 260.246 119 261.028 119 261.991C119 262.955 119.781 263.736 120.745 263.736Z" stroke="#44AE79" stroke-miterlimit="10" stroke-linecap="round" stroke-linejoin="round"/>
<path d="M248 183.844C249.859 183.844 251.365 182.337 251.365 180.478C251.365 178.62 249.859 177.113 248 177.113C246.141 177.113 244.635 178.62 244.635 180.478C244.635 182.337 246.141 183.844 248 183.844Z" stroke="#44AE79" stroke-miterlimit="10" stroke-linecap="round" stroke-linejoin="round"/>
<path d="M229.179 210.267C230.143 210.267 230.924 209.485 230.924 208.522C230.924 207.558 230.143 206.777 229.179 206.777C228.216 206.777 227.435 207.558 227.435 208.522C227.435 209.485 228.216 210.267 229.179 210.267Z" stroke="#44AE79" stroke-miterlimit="10" stroke-linecap="round" stroke-linejoin="round"/>
<path d="M219.957 201.043C220.921 201.043 221.702 200.262 221.702 199.298C221.702 198.335 220.921 197.553 219.957 197.553C218.994 197.553 218.212 198.335 218.212 199.298C218.212 200.262 218.994 201.043 219.957 201.043Z" stroke="#44AE79" stroke-miterlimit="10" stroke-linecap="round" stroke-linejoin="round"/>
<path d="M65.9685 262.434C66.4325 262.434 66.8086 262.058 66.8086 261.594C66.8086 261.13 66.4325 260.753 65.9685 260.753C65.5046 260.753 65.1284 261.13 65.1284 261.594C65.1284 262.058 65.5046 262.434 65.9685 262.434Z" stroke="#44AE79" stroke-width="0.75" stroke-miterlimit="10" stroke-linecap="round" stroke-linejoin="round"/>
<path d="M63.7286 243.018C64.6565 243.018 65.4088 242.265 65.4088 241.337C65.4088 240.409 64.6565 239.657 63.7286 239.657C62.8006 239.657 62.0483 240.409 62.0483 241.337C62.0483 242.265 62.8006 243.018 63.7286 243.018Z" stroke="#44AE79" stroke-width="0.75" stroke-miterlimit="10" stroke-linecap="round" stroke-linejoin="round"/>
<path d="M177.89 118.121L38.8047 257.3" stroke="#44AE79" stroke-width="0.75" stroke-miterlimit="10" stroke-linecap="round" stroke-linejoin="round"/>
<path d="M177.89 127.269L64.9414 240.217" stroke="#44AE79" stroke-width="0.75" stroke-miterlimit="10" stroke-linecap="round" stroke-linejoin="round"/>
<path d="M177.89 131.75L76.6094 232.936" stroke="#44AE79" stroke-width="0.75" stroke-miterlimit="10" stroke-linecap="round" stroke-linejoin="round"/>
<path d="M177.89 140.711L81.0903 237.51" stroke="#44AE79" stroke-width="0.75" stroke-miterlimit="10" stroke-linecap="round" stroke-linejoin="round"/>
<path d="M177.89 136.23L90.9854 223.042" stroke="#44AE79" stroke-width="0.75" stroke-miterlimit="10" stroke-linecap="round" stroke-linejoin="round"/>
<path d="M177.89 145.285L73.9028 249.179" stroke="#44AE79" stroke-width="0.75" stroke-miterlimit="10" stroke-linecap="round" stroke-linejoin="round"/>
<path d="M177.89 149.765L66.7153 260.847" stroke="#44AE79" stroke-width="0.75" stroke-miterlimit="10" stroke-linecap="round" stroke-linejoin="round"/>
<path d="M177.89 113.64L27.79 263.834" stroke="#44AE79" stroke-width="0.75" stroke-miterlimit="10" stroke-linecap="round" stroke-linejoin="round"/>
<path d="M177.89 122.695L53.1802 247.405" stroke="#44AE79" stroke-width="0.75" stroke-miterlimit="10" stroke-linecap="round" stroke-linejoin="round"/>
<path d="M177.89 158.727L50.2866 286.33" stroke="#44AE79" stroke-width="0.75" stroke-miterlimit="10" stroke-linecap="round" stroke-linejoin="round"/>
<path d="M177.89 154.246L56.8208 275.315" stroke="#44AE79" stroke-width="0.75" stroke-miterlimit="10" stroke-linecap="round" stroke-linejoin="round"/>
<path d="M37.4043 260.38C38.3323 260.38 39.0846 259.628 39.0846 258.7C39.0846 257.772 38.3323 257.02 37.4043 257.02C36.4764 257.02 35.7241 257.772 35.7241 258.7C35.7241 259.628 36.4764 260.38 37.4043 260.38Z" stroke="#44AE79" stroke-width="0.75" stroke-miterlimit="10" stroke-linecap="round" stroke-linejoin="round"/>
<path d="M26.8567 265.514C27.3207 265.514 27.6968 265.138 27.6968 264.674C27.6968 264.21 27.3207 263.834 26.8567 263.834C26.3927 263.834 26.0166 264.21 26.0166 264.674C26.0166 265.138 26.3927 265.514 26.8567 265.514Z" stroke="#44AE79" stroke-width="0.75" stroke-miterlimit="10" stroke-linecap="round" stroke-linejoin="round"/>
<path d="M52.5266 248.898C52.9906 248.898 53.3668 248.522 53.3668 248.058C53.3668 247.594 52.9906 247.218 52.5266 247.218C52.0627 247.218 51.6865 247.594 51.6865 248.058C51.6865 248.522 52.0627 248.898 52.5266 248.898Z" stroke="#44AE79" stroke-width="0.75" stroke-miterlimit="10" stroke-linecap="round" stroke-linejoin="round"/>
<path d="M72.7828 252.072C73.7107 252.072 74.463 251.32 74.463 250.392C74.463 249.464 73.7107 248.712 72.7828 248.712C71.8548 248.712 71.1025 249.464 71.1025 250.392C71.1025 251.32 71.8548 252.072 72.7828 252.072Z" stroke="#44AE79" stroke-width="0.75" stroke-miterlimit="10" stroke-linecap="round" stroke-linejoin="round"/>
<path d="M55.3272 278.396C56.2552 278.396 57.0074 277.643 57.0074 276.715C57.0074 275.787 56.2552 275.035 55.3272 275.035C54.3992 275.035 53.647 275.787 53.647 276.715C53.647 277.643 54.3992 278.396 55.3272 278.396Z" stroke="#44AE79" stroke-width="0.75" stroke-miterlimit="10" stroke-linecap="round" stroke-linejoin="round"/>
<path d="M49.4466 288.01C49.9105 288.01 50.2867 287.634 50.2867 287.17C50.2867 286.706 49.9105 286.33 49.4466 286.33C48.9826 286.33 48.6064 286.706 48.6064 287.17C48.6064 287.634 48.9826 288.01 49.4466 288.01Z" stroke="#44AE79" stroke-width="0.75" stroke-miterlimit="10" stroke-linecap="round" stroke-linejoin="round"/>
<path d="M89.585 226.215C90.513 226.215 91.2652 225.463 91.2652 224.535C91.2652 223.607 90.513 222.855 89.585 222.855C88.657 222.855 87.9048 223.607 87.9048 224.535C87.9048 225.463 88.657 226.215 89.585 226.215Z" stroke="#44AE79" stroke-width="0.75" stroke-miterlimit="10" stroke-linecap="round" stroke-linejoin="round"/>
<path d="M75.7698 234.617C76.2338 234.617 76.6099 234.24 76.6099 233.776C76.6099 233.312 76.2338 232.936 75.7698 232.936C75.3058 232.936 74.9297 233.312 74.9297 233.776C74.9297 234.24 75.3058 234.617 75.7698 234.617Z" stroke="#44AE79" stroke-width="0.75" stroke-miterlimit="10" stroke-linecap="round" stroke-linejoin="round"/>
<path d="M80.2508 239.19C80.7147 239.19 81.0909 238.814 81.0909 238.35C81.0909 237.886 80.7147 237.51 80.2508 237.51C79.7868 237.51 79.4106 237.886 79.4106 238.35C79.4106 238.814 79.7868 239.19 80.2508 239.19Z" stroke="#44AE79" stroke-width="0.75" stroke-miterlimit="10" stroke-linecap="round" stroke-linejoin="round"/>
<path d="M27.4168 222.762C27.8808 222.762 28.2569 222.386 28.2569 221.922C28.2569 221.458 27.8808 221.082 27.4168 221.082C26.9528 221.082 26.5767 221.458 26.5767 221.922C26.5767 222.386 26.9528 222.762 27.4168 222.762Z" stroke="#44AE79" stroke-width="0.75" stroke-miterlimit="10" stroke-linecap="round" stroke-linejoin="round"/>
<path d="M47.6729 225.842C48.6009 225.842 49.3531 225.09 49.3531 224.162C49.3531 223.234 48.6009 222.482 47.6729 222.482C46.7449 222.482 45.9927 223.234 45.9927 224.162C45.9927 225.09 46.7449 225.842 47.6729 225.842Z" stroke="#44AE79" stroke-width="0.75" stroke-miterlimit="10" stroke-linecap="round" stroke-linejoin="round"/>
<path d="M170.889 110L31.7104 249.085" stroke="#44AE79" stroke-width="0.75" stroke-miterlimit="10" stroke-linecap="round" stroke-linejoin="round"/>
<path d="M161.741 110.093L48.793 222.948" stroke="#44AE79" stroke-width="0.75" stroke-miterlimit="10" stroke-linecap="round" stroke-linejoin="round"/>
<path d="M157.261 110.093L56.0742 211.28" stroke="#44AE79" stroke-width="0.75" stroke-miterlimit="10" stroke-linecap="round" stroke-linejoin="round"/>
<path d="M148.299 110.093L51.4995 206.799" stroke="#44AE79" stroke-width="0.75" stroke-miterlimit="10" stroke-linecap="round" stroke-linejoin="round"/>
<path d="M152.78 110.093L65.9683 196.905" stroke="#44AE79" stroke-width="0.75" stroke-miterlimit="10" stroke-linecap="round" stroke-linejoin="round"/>
<path d="M143.725 110.093L39.8315 213.987" stroke="#44AE79" stroke-width="0.75" stroke-miterlimit="10" stroke-linecap="round" stroke-linejoin="round"/>
<path d="M139.245 110.093L28.0703 221.175" stroke="#44AE79" stroke-width="0.75" stroke-miterlimit="10" stroke-linecap="round" stroke-linejoin="round"/>
<path d="M175.37 110L25.1763 260.1" stroke="#44AE79" stroke-width="0.75" stroke-miterlimit="10" stroke-linecap="round" stroke-linejoin="round"/>
<path d="M166.315 110.093L41.6055 234.71" stroke="#44AE79" stroke-width="0.75" stroke-miterlimit="10" stroke-linecap="round" stroke-linejoin="round"/>
<path d="M130.284 110L2.68018 237.604" stroke="#44AE79" stroke-width="0.75" stroke-miterlimit="10" stroke-linecap="round" stroke-linejoin="round"/>
<path d="M134.764 110.093L13.6948 231.069" stroke="#44AE79" stroke-width="0.75" stroke-miterlimit="10" stroke-linecap="round" stroke-linejoin="round"/>
<path d="M30.3101 252.166C31.2381 252.166 31.9903 251.413 31.9903 250.485C31.9903 249.557 31.2381 248.805 30.3101 248.805C29.3821 248.805 28.6299 249.557 28.6299 250.485C28.6299 251.413 29.3821 252.166 30.3101 252.166Z" stroke="#44AE79" stroke-width="0.75" stroke-miterlimit="10" stroke-linecap="round" stroke-linejoin="round"/>
<path d="M24.3367 261.874C24.8007 261.874 25.1768 261.497 25.1768 261.033C25.1768 260.569 24.8007 260.193 24.3367 260.193C23.8727 260.193 23.4966 260.569 23.4966 261.033C23.4966 261.497 23.8727 261.874 24.3367 261.874Z" stroke="#44AE79" stroke-width="0.75" stroke-miterlimit="10" stroke-linecap="round" stroke-linejoin="round"/>
<path d="M40.9519 236.203C41.4159 236.203 41.792 235.827 41.792 235.363C41.792 234.899 41.4159 234.523 40.9519 234.523C40.4879 234.523 40.1118 234.899 40.1118 235.363C40.1118 235.827 40.4879 236.203 40.9519 236.203Z" stroke="#44AE79" stroke-width="0.75" stroke-miterlimit="10" stroke-linecap="round" stroke-linejoin="round"/>
<path d="M38.6182 216.788C39.5462 216.788 40.2984 216.035 40.2984 215.107C40.2984 214.18 39.5462 213.427 38.6182 213.427C37.6903 213.427 36.938 214.18 36.938 215.107C36.938 216.035 37.6903 216.788 38.6182 216.788Z" stroke="#44AE79" stroke-width="0.75" stroke-miterlimit="10" stroke-linecap="round" stroke-linejoin="round"/>
<path d="M12.2945 234.243C13.2224 234.243 13.9747 233.491 13.9747 232.563C13.9747 231.635 13.2224 230.883 12.2945 230.883C11.3665 230.883 10.6143 231.635 10.6143 232.563C10.6143 233.491 11.3665 234.243 12.2945 234.243Z" stroke="#44AE79" stroke-width="0.75" stroke-miterlimit="10" stroke-linecap="round" stroke-linejoin="round"/>
<path d="M1.84011 239.377C2.30409 239.377 2.68022 239.001 2.68022 238.537C2.68022 238.073 2.30409 237.697 1.84011 237.697C1.37613 237.697 1 238.073 1 238.537C1 239.001 1.37613 239.377 1.84011 239.377Z" stroke="#44AE79" stroke-width="0.75" stroke-miterlimit="10" stroke-linecap="round" stroke-linejoin="round"/>
<path d="M64.4751 200.079C65.4031 200.079 66.1554 199.326 66.1554 198.398C66.1554 197.471 65.4031 196.718 64.4751 196.718C63.5472 196.718 62.7949 197.471 62.7949 198.398C62.7949 199.326 63.5472 200.079 64.4751 200.079Z" stroke="#44AE79" stroke-width="0.75" stroke-miterlimit="10" stroke-linecap="round" stroke-linejoin="round"/>
<path d="M55.2342 212.96C55.6981 212.96 56.0743 212.584 56.0743 212.12C56.0743 211.656 55.6981 211.28 55.2342 211.28C54.7702 211.28 54.394 211.656 54.394 212.12C54.394 212.584 54.7702 212.96 55.2342 212.96Z" stroke="#44AE79" stroke-width="0.75" stroke-miterlimit="10" stroke-linecap="round" stroke-linejoin="round"/>
<path d="M50.6599 208.48C51.1239 208.48 51.5001 208.104 51.5001 207.64C51.5001 207.176 51.1239 206.8 50.6599 206.8C50.196 206.8 49.8198 207.176 49.8198 207.64C49.8198 208.104 50.196 208.48 50.6599 208.48Z" stroke="#44AE79" stroke-width="0.75" stroke-miterlimit="10" stroke-linecap="round" stroke-linejoin="round"/>
<path d="M595.845 299.69C615.641 299.69 631.69 283.641 631.69 263.845C631.69 244.048 615.641 228 595.845 228C576.048 228 560 244.048 560 263.845C560 283.641 576.048 299.69 595.845 299.69Z" stroke="#F27024" stroke-width="0.75" stroke-miterlimit="10"/>
<path d="M443.077 293.813C443.644 293.813 444.104 293.353 444.104 292.786C444.104 292.219 443.644 291.759 443.077 291.759C442.51 291.759 442.05 292.219 442.05 292.786C442.05 293.353 442.51 293.813 443.077 293.813Z" stroke="#44AE79" stroke-miterlimit="10" stroke-linecap="round" stroke-linejoin="round"/>
<path d="M440.183 269.076C441.369 269.076 442.33 268.115 442.33 266.929C442.33 265.743 441.369 264.782 440.183 264.782C438.997 264.782 438.036 265.743 438.036 266.929C438.036 268.115 438.997 269.076 440.183 269.076Z" stroke="#44AE79" stroke-miterlimit="10" stroke-linecap="round" stroke-linejoin="round"/>
<path d="M586.083 109.455L408.259 287.279" stroke="#44AE79" stroke-miterlimit="10" stroke-linecap="round" stroke-linejoin="round"/>
<path d="M585.989 121.123L441.583 265.436" stroke="#44AE79" stroke-miterlimit="10" stroke-linecap="round" stroke-linejoin="round"/>
<path d="M585.99 126.817L456.612 256.194" stroke="#44AE79" stroke-miterlimit="10" stroke-linecap="round" stroke-linejoin="round"/>
<path d="M585.99 138.392L462.307 261.982" stroke="#44AE79" stroke-miterlimit="10" stroke-linecap="round" stroke-linejoin="round"/>
<path d="M585.99 132.605L475.002 243.593" stroke="#44AE79" stroke-miterlimit="10" stroke-linecap="round" stroke-linejoin="round"/>
<path d="M585.99 144.086L453.159 276.917" stroke="#44AE79" stroke-miterlimit="10" stroke-linecap="round" stroke-linejoin="round"/>
<path d="M585.99 149.874L443.917 291.946" stroke="#44AE79" stroke-miterlimit="10" stroke-linecap="round" stroke-linejoin="round"/>
<path d="M586.083 103.761L394.164 295.68" stroke="#44AE79" stroke-miterlimit="10" stroke-linecap="round" stroke-linejoin="round"/>
<path d="M585.99 115.336L426.648 274.677" stroke="#44AE79" stroke-miterlimit="10" stroke-linecap="round" stroke-linejoin="round"/>
<path d="M586.083 161.262L422.915 324.43" stroke="#44AE79" stroke-miterlimit="10" stroke-linecap="round" stroke-linejoin="round"/>
<path d="M585.99 155.661L431.223 310.335" stroke="#44AE79" stroke-miterlimit="10" stroke-linecap="round" stroke-linejoin="round"/>
<path d="M406.392 291.292C407.578 291.292 408.539 290.331 408.539 289.145C408.539 287.96 407.578 286.999 406.392 286.999C405.206 286.999 404.245 287.96 404.245 289.145C404.245 290.331 405.206 291.292 406.392 291.292Z" stroke="#44AE79" stroke-miterlimit="10" stroke-linecap="round" stroke-linejoin="round"/>
<path d="M393.044 297.827C393.611 297.827 394.071 297.367 394.071 296.8C394.071 296.233 393.611 295.773 393.044 295.773C392.477 295.773 392.017 296.233 392.017 296.8C392.017 297.367 392.477 297.827 393.044 297.827Z" stroke="#44AE79" stroke-miterlimit="10" stroke-linecap="round" stroke-linejoin="round"/>
<path d="M425.809 276.637C426.376 276.637 426.835 276.177 426.835 275.61C426.835 275.043 426.376 274.583 425.809 274.583C425.241 274.583 424.782 275.043 424.782 275.61C424.782 276.177 425.241 276.637 425.809 276.637Z" stroke="#44AE79" stroke-miterlimit="10" stroke-linecap="round" stroke-linejoin="round"/>
<path d="M451.665 280.651C452.851 280.651 453.812 279.69 453.812 278.504C453.812 277.318 452.851 276.357 451.665 276.357C450.479 276.357 449.518 277.318 449.518 278.504C449.518 279.69 450.479 280.651 451.665 280.651Z" stroke="#44AE79" stroke-miterlimit="10" stroke-linecap="round" stroke-linejoin="round"/>
<path d="M429.355 314.256C430.541 314.256 431.502 313.294 431.502 312.109C431.502 310.923 430.541 309.962 429.355 309.962C428.17 309.962 427.208 310.923 427.208 312.109C427.208 313.294 428.17 314.256 429.355 314.256Z" stroke="#44AE79" stroke-miterlimit="10" stroke-linecap="round" stroke-linejoin="round"/>
<path d="M421.794 326.577C422.361 326.577 422.821 326.117 422.821 325.55C422.821 324.983 422.361 324.523 421.794 324.523C421.227 324.523 420.768 324.983 420.768 325.55C420.768 326.117 421.227 326.577 421.794 326.577Z" stroke="#44AE79" stroke-miterlimit="10" stroke-linecap="round" stroke-linejoin="round"/>
<path d="M473.135 247.607C474.32 247.607 475.282 246.645 475.282 245.46C475.282 244.274 474.32 243.313 473.135 243.313C471.949 243.313 470.988 244.274 470.988 245.46C470.988 246.645 471.949 247.607 473.135 247.607Z" stroke="#44AE79" stroke-miterlimit="10" stroke-linecap="round" stroke-linejoin="round"/>
<path d="M455.492 258.341C456.059 258.341 456.519 257.882 456.519 257.315C456.519 256.748 456.059 256.288 455.492 256.288C454.925 256.288 454.465 256.748 454.465 257.315C454.465 257.882 454.925 258.341 455.492 258.341Z" stroke="#44AE79" stroke-miterlimit="10" stroke-linecap="round" stroke-linejoin="round"/>
<path d="M461.28 264.129C461.847 264.129 462.307 263.669 462.307 263.102C462.307 262.535 461.847 262.075 461.28 262.075C460.713 262.075 460.253 262.535 460.253 263.102C460.253 263.669 460.713 264.129 461.28 264.129Z" stroke="#44AE79" stroke-miterlimit="10" stroke-linecap="round" stroke-linejoin="round"/>
<path d="M393.698 243.126C394.265 243.126 394.724 242.666 394.724 242.099C394.724 241.532 394.265 241.072 393.698 241.072C393.131 241.072 392.671 241.532 392.671 242.099C392.671 242.666 393.131 243.126 393.698 243.126Z" stroke="#44AE79" stroke-miterlimit="10" stroke-linecap="round" stroke-linejoin="round"/>
<path d="M419.555 247.14C420.74 247.14 421.702 246.178 421.702 244.993C421.702 243.807 420.74 242.846 419.555 242.846C418.369 242.846 417.408 243.807 417.408 244.993C417.408 246.178 418.369 247.14 419.555 247.14Z" stroke="#44AE79" stroke-miterlimit="10" stroke-linecap="round" stroke-linejoin="round"/>
<path d="M577.029 99L399.205 276.824" stroke="#44AE79" stroke-miterlimit="10" stroke-linecap="round" stroke-linejoin="round"/>
<path d="M565.454 99.0933L421.048 243.499" stroke="#44AE79" stroke-miterlimit="10" stroke-linecap="round" stroke-linejoin="round"/>
<path d="M559.667 99.0933L430.29 228.564" stroke="#44AE79" stroke-miterlimit="10" stroke-linecap="round" stroke-linejoin="round"/>
<path d="M548.185 99.0933L424.502 222.776" stroke="#44AE79" stroke-miterlimit="10" stroke-linecap="round" stroke-linejoin="round"/>
<path d="M553.88 99.0933L442.985 210.081" stroke="#44AE79" stroke-miterlimit="10" stroke-linecap="round" stroke-linejoin="round"/>
<path d="M542.398 99.0933L409.567 232.018" stroke="#44AE79" stroke-miterlimit="10" stroke-linecap="round" stroke-linejoin="round"/>
<path d="M536.61 99.0933L394.631 241.166" stroke="#44AE79" stroke-miterlimit="10" stroke-linecap="round" stroke-linejoin="round"/>
<path d="M582.816 99L390.897 291.012" stroke="#44AE79" stroke-miterlimit="10" stroke-linecap="round" stroke-linejoin="round"/>
<path d="M571.148 99.0933L411.9 258.434" stroke="#44AE79" stroke-miterlimit="10" stroke-linecap="round" stroke-linejoin="round"/>
<path d="M525.222 99L362.054 262.168" stroke="#44AE79" stroke-miterlimit="10" stroke-linecap="round" stroke-linejoin="round"/>
<path d="M530.916 99.0933L376.149 253.861" stroke="#44AE79" stroke-miterlimit="10" stroke-linecap="round" stroke-linejoin="round"/>
<path d="M397.338 280.837C398.524 280.837 399.485 279.876 399.485 278.69C399.485 277.505 398.524 276.543 397.338 276.543C396.153 276.543 395.191 277.505 395.191 278.69C395.191 279.876 396.153 280.837 397.338 280.837Z" stroke="#44AE79" stroke-miterlimit="10" stroke-linecap="round" stroke-linejoin="round"/>
<path d="M389.777 293.066C390.344 293.066 390.804 292.606 390.804 292.039C390.804 291.472 390.344 291.012 389.777 291.012C389.21 291.012 388.75 291.472 388.75 292.039C388.75 292.606 389.21 293.066 389.777 293.066Z" stroke="#44AE79" stroke-miterlimit="10" stroke-linecap="round" stroke-linejoin="round"/>
<path d="M410.967 260.301C411.534 260.301 411.994 259.842 411.994 259.275C411.994 258.707 411.534 258.248 410.967 258.248C410.4 258.248 409.94 258.707 409.94 259.275C409.94 259.842 410.4 260.301 410.967 260.301Z" stroke="#44AE79" stroke-miterlimit="10" stroke-linecap="round" stroke-linejoin="round"/>
<path d="M408.073 235.565C409.259 235.565 410.22 234.603 410.22 233.418C410.22 232.232 409.259 231.271 408.073 231.271C406.888 231.271 405.926 232.232 405.926 233.418C405.926 234.603 406.888 235.565 408.073 235.565Z" stroke="#44AE79" stroke-miterlimit="10" stroke-linecap="round" stroke-linejoin="round"/>
<path d="M374.375 257.874C375.561 257.874 376.522 256.913 376.522 255.728C376.522 254.542 375.561 253.581 374.375 253.581C373.19 253.581 372.229 254.542 372.229 255.728C372.229 256.913 373.19 257.874 374.375 257.874Z" stroke="#44AE79" stroke-miterlimit="10" stroke-linecap="round" stroke-linejoin="round"/>
<path d="M361.027 264.315C361.594 264.315 362.054 263.856 362.054 263.289C362.054 262.721 361.594 262.262 361.027 262.262C360.46 262.262 360 262.721 360 263.289C360 263.856 360.46 264.315 361.027 264.315Z" stroke="#44AE79" stroke-miterlimit="10" stroke-linecap="round" stroke-linejoin="round"/>
<path d="M441.118 214.189C442.303 214.189 443.265 213.227 443.265 212.042C443.265 210.856 442.303 209.895 441.118 209.895C439.932 209.895 438.971 210.856 438.971 212.042C438.971 213.227 439.932 214.189 441.118 214.189Z" stroke="#44AE79" stroke-miterlimit="10" stroke-linecap="round" stroke-linejoin="round"/>
<path d="M429.263 230.618C429.83 230.618 430.289 230.158 430.289 229.591C430.289 229.024 429.83 228.564 429.263 228.564C428.696 228.564 428.236 229.024 428.236 229.591C428.236 230.158 428.696 230.618 429.263 230.618Z" stroke="#44AE79" stroke-miterlimit="10" stroke-linecap="round" stroke-linejoin="round"/>
<path d="M423.475 224.83C424.042 224.83 424.502 224.37 424.502 223.803C424.502 223.236 424.042 222.776 423.475 222.776C422.908 222.776 422.448 223.236 422.448 223.803C422.448 224.37 422.908 224.83 423.475 224.83Z" stroke="#44AE79" stroke-miterlimit="10" stroke-linecap="round" stroke-linejoin="round"/>
<path d="M485.5 222C502.345 222 516 208.345 516 191.5C516 174.655 502.345 161 485.5 161C468.655 161 455 174.655 455 191.5C455 208.345 468.655 222 485.5 222Z" stroke="#F27024" stroke-width="0.75" stroke-miterlimit="10"/>
<path d="M532 116C561.823 116 586 91.8234 586 62C586 32.1766 561.823 8 532 8C502.177 8 478 32.1766 478 62C478 91.8234 502.177 116 532 116Z" stroke="#F27024" stroke-miterlimit="10"/>
</svg>
